<?xml version="1.0" standalone="no"?><!DOCTYPE svg PUBLIC "-//W3C//DTD SVG 1.1//EN" "http://www.w3.org/Graphics/SVG/1.1/DTD/svg11.dtd"><svg class="icon" height="512" viewBox="0 0 1024 1024" version="1.1" xmlns="http://www.w3.org/2000/svg"><path d="M862.562845 767.413244c-14.716472-105.901505-57.755807-199.941027-154.047204-212.944806-49.826674 54.362138-121.759772 88.93316-201.051105 88.93316s-151.224432-34.539305-201.051106-88.93316c-96.291396 13.035495-139.330732 107.043301-154.047203 212.944806C231.086663 878.421111 360.775568 951.496004 507.464536 951.496004s276.377873-73.074893 355.098309-184.08276z m-137.618039-395.885771c0-120.078796-97.401474-217.48027-217.48027-217.48027s-217.48027 97.401474-217.48027 217.48027 97.401474 217.48027 217.48027 217.48027 217.48027-97.401474 217.48027-217.48027zM1014.929071 516.535464c0 279.232361-226.551199 507.464536-507.464535 507.464536-280.342439 0-507.464536-227.692994-507.464536-507.464536 0-280.342439 227.122096-507.464536 507.464536-507.464535s507.464536 227.122096 507.464535 507.464535z" fill="#1296db" /></svg>